<svg width="24" height="24" viewBox="0 0 24 24" fill="none" xmlns="http://www.w3.org/2000/svg">
<mask id="mask0_864_1542" style="mask-type:alpha" maskUnits="userSpaceOnUse" x="0" y="0" width="24" height="24">
<circle cx="12" cy="12" r="12" fill="#C4C4C4"/>
</mask>
<g mask="url(#mask0_864_1542)">
<mask id="mask1_864_1542" style="mask-type:alpha" maskUnits="userSpaceOnUse" x="-4" y="0" width="32" height="24">
<rect x="-4" width="32" height="24" fill="white"/>
</mask>
<g mask="url(#mask1_864_1542)">
<path fill-rule="evenodd" clip-rule="evenodd" d="M-4 0H28V24H-4V0Z" fill="#F7FCFF"/>
<path fill-rule="evenodd" clip-rule="evenodd" d="M-4 14.6667V16.6667H28V14.6667H-4Z" fill="#E31D1C"/>
<path fill-rule="evenodd" clip-rule="evenodd" d="M-4 18.3333V20.3333H28V18.3333H-4Z" fill="#E31D1C"/>
<path fill-rule="evenodd" clip-rule="evenodd" d="M-4 7.33331V9.33331H28V7.33331H-4Z" fill="#E31D1C"/>
<path fill-rule="evenodd" clip-rule="evenodd" d="M-4 22V24H28V22H-4Z" fill="#E31D1C"/>
<path fill-rule="evenodd" clip-rule="evenodd" d="M-4 11V13H28V11H-4Z" fill="#E31D1C"/>
<path fill-rule="evenodd" clip-rule="evenodd" d="M-4 0V2H28V0H-4Z" fill="#E31D1C"/>
<path fill-rule="evenodd" clip-rule="evenodd" d="M-4 3.66669V5.66669H28V3.66669H-4Z" fill="#E31D1C"/>
<rect x="-4" width="20" height="13" fill="#2E42A5"/>
<path fill-rule="evenodd" clip-rule="evenodd" d="M-2.27803 2.93864L-3.00391 3.44753L-2.75885 2.54192L-3.40356 1.96801H-2.56148L-2.27905 1.22894L-1.94788 1.96801H-1.23002L-1.79406 2.54192L-1.5757 3.44753L-2.27803 2.93864ZM1.72197 2.93864L0.996087 3.44753L1.24115 2.54192L0.596436 1.96801H1.43852L1.72095 1.22894L2.05212 1.96801H2.76998L2.20594 2.54192L2.4243 3.44753L1.72197 2.93864ZM4.99609 3.44753L5.72197 2.93864L6.4243 3.44753L6.20594 2.54192L6.76998 1.96801H6.05212L5.72095 1.22894L5.43852 1.96801H4.59644L5.24115 2.54192L4.99609 3.44753ZM9.72197 2.93864L8.99609 3.44753L9.24115 2.54192L8.59644 1.96801H9.43852L9.72095 1.22894L10.0521 1.96801H10.77L10.2059 2.54192L10.4243 3.44753L9.72197 2.93864ZM-3.00391 7.44753L-2.27803 6.93864L-1.5757 7.44753L-1.79406 6.54192L-1.23002 5.96801H-1.94788L-2.27905 5.22894L-2.56148 5.96801H-3.40356L-2.75885 6.54192L-3.00391 7.44753ZM1.72197 6.93864L0.996087 7.44753L1.24115 6.54192L0.596436 5.96801H1.43852L1.72095 5.22894L2.05212 5.96801H2.76998L2.20594 6.54192L2.4243 7.44753L1.72197 6.93864ZM4.99609 7.44753L5.72197 6.93864L6.4243 7.44753L6.20594 6.54192L6.76998 5.96801H6.05212L5.72095 5.22894L5.43852 5.96801H4.59644L5.24115 6.54192L4.99609 7.44753ZM9.72197 6.93864L8.99609 7.44753L9.24115 6.54192L8.59644 5.96801H9.43852L9.72095 5.22894L10.0521 5.96801H10.77L10.2059 6.54192L10.4243 7.44753L9.72197 6.93864ZM-3.00391 11.4475L-2.27803 10.9386L-1.5757 11.4475L-1.79406 10.5419L-1.23002 9.96801H-1.94788L-2.27905 9.22894L-2.56148 9.96801H-3.40356L-2.75885 10.5419L-3.00391 11.4475ZM1.72197 10.9386L0.996087 11.4475L1.24115 10.5419L0.596436 9.96801H1.43852L1.72095 9.22894L2.05212 9.96801H2.76998L2.20594 10.5419L2.4243 11.4475L1.72197 10.9386ZM4.99609 11.4475L5.72197 10.9386L6.4243 11.4475L6.20594 10.5419L6.76998 9.96801H6.05212L5.72095 9.22894L5.43852 9.96801H4.59644L5.24115 10.5419L4.99609 11.4475ZM9.72197 10.9386L8.99609 11.4475L9.24115 10.5419L8.59644 9.96801H9.43852L9.72095 9.22894L10.0521 9.96801H10.77L10.2059 10.5419L10.4243 11.4475L9.72197 10.9386ZM12.9961 3.44753L13.722 2.93864L14.4243 3.44753L14.2059 2.54192L14.77 1.96801H14.0521L13.721 1.22894L13.4385 1.96801H12.5964L13.2412 2.54192L12.9961 3.44753ZM13.722 6.93864L12.9961 7.44753L13.2412 6.54192L12.5964 5.96801H13.4385L13.721 5.22894L14.0521 5.96801H14.77L14.2059 6.54192L14.4243 7.44753L13.722 6.93864ZM12.9961 11.4475L13.722 10.9386L14.4243 11.4475L14.2059 10.5419L14.77 9.96801H14.0521L13.721 9.22894L13.4385 9.96801H12.5964L13.2412 10.5419L12.9961 11.4475ZM-0.278033 4.93864L-1.00391 5.44753L-0.758848 4.54192L-1.40356 3.96801H-0.561477L-0.279048 3.22894L0.0521233 3.96801H0.769979L0.205943 4.54192L0.424304 5.44753L-0.278033 4.93864ZM2.99609 5.44753L3.72197 4.93864L4.4243 5.44753L4.20594 4.54192L4.76998 3.96801H4.05212L3.72095 3.22894L3.43852 3.96801H2.59644L3.24115 4.54192L2.99609 5.44753ZM7.72197 4.93864L6.99609 5.44753L7.24115 4.54192L6.59644 3.96801H7.43852L7.72095 3.22894L8.05212 3.96801H8.76998L8.20594 4.54192L8.4243 5.44753L7.72197 4.93864ZM-1.00391 9.44753L-0.278033 8.93864L0.424304 9.44753L0.205943 8.54192L0.769979 7.96801H0.0521233L-0.279048 7.22894L-0.561477 7.96801H-1.40356L-0.758848 8.54192L-1.00391 9.44753ZM3.72197 8.93864L2.99609 9.44753L3.24115 8.54192L2.59644 7.96801H3.43852L3.72095 7.22894L4.05212 7.96801H4.76998L4.20594 8.54192L4.4243 9.44753L3.72197 8.93864ZM6.99609 9.44753L7.72197 8.93864L8.4243 9.44753L8.20594 8.54192L8.76998 7.96801H8.05212L7.72095 7.22894L7.43852 7.96801H6.59644L7.24115 8.54192L6.99609 9.44753ZM11.722 4.93864L10.9961 5.44753L11.2412 4.54192L10.5964 3.96801H11.4385L11.721 3.22894L12.0521 3.96801H12.77L12.2059 4.54192L12.4243 5.44753L11.722 4.93864ZM10.9961 9.44753L11.722 8.93864L12.4243 9.44753L12.2059 8.54192L12.77 7.96801H12.0521L11.721 7.22894L11.4385 7.96801H10.5964L11.2412 8.54192L10.9961 9.44753Z" fill="#F7FCFF"/>
</g>
</g>
</svg>
